<svg width="180" height="62" viewBox="0 0 180 62" fill="none" xmlns="http://www.w3.org/2000/svg">
<path d="M170.792 61.6375H8.47727C3.73997 61.6375 0 57.769 0 52.8689V9.02641C0 3.86846 3.73997 0 8.47727 0H170.792C175.529 0 179.269 3.86846 179.269 8.76851V52.611C179.269 57.5111 175.529 61.6375 170.792 61.6375ZM8.47727 1.28949C4.48796 1.28949 1.24666 4.64215 1.24666 8.76851V52.611C1.24666 56.7374 4.48796 60.0901 8.47727 60.0901H170.792C174.781 60.0901 178.023 56.7374 178.023 52.611V8.76851C178.023 4.64215 174.781 1.28949 170.792 1.28949H8.47727Z" fill="#CACACA"/>
<path d="M47.1236 40.4898C46.1263 42.553 45.6276 43.5845 44.6303 45.6477C42.885 48.2267 40.641 51.5793 37.649 51.5793C34.9064 51.5793 34.4077 49.7741 30.6677 49.7741C27.1771 49.7741 26.4291 51.5793 23.6865 51.5793C20.6945 51.5793 18.4505 48.4846 16.7052 45.9056C11.9679 38.4266 11.4692 29.6581 14.4612 25.016C16.4559 21.6633 19.6972 19.858 22.9385 19.858C26.1798 19.858 27.9251 21.6633 30.6677 21.6633C33.161 21.6633 34.657 19.858 38.397 19.858C41.1396 19.858 44.1316 21.4054 46.1263 23.9844C39.145 27.8528 40.1423 37.9108 47.1236 40.4898Z" fill="#CACACA"/>
<path d="M35.4051 16.7633C36.6517 14.958 37.649 12.6369 37.3997 10.0579C35.1557 10.3158 32.6624 11.6053 31.1664 13.4106C29.9198 14.958 28.6731 17.537 29.1718 19.8581C31.6651 20.116 33.9091 18.5686 35.4051 16.7633Z" fill="#CACACA"/>
<path d="M61.5849 24.7581L54.8529 45.3899H57.8449L59.8395 38.9424H66.3221L68.3168 45.3899H71.5581L64.8262 24.7581H61.5849ZM63.0808 28.3686C63.3302 29.4002 63.5795 30.1739 63.8288 31.2055L65.5741 36.6214H60.3382L62.0835 31.2055C62.5822 30.1739 62.8315 29.1423 63.0808 28.3686Z" fill="#CACACA"/>
<path d="M80.534 30.174C78.5394 30.174 76.7941 30.9476 75.7967 32.495V30.4318H73.0541V30.6897C73.0541 31.9792 73.0541 33.2687 73.0541 35.3319V51.3215H76.0461V43.8425C77.0434 44.8741 78.5394 45.6478 80.2847 45.6478C82.03 45.6478 83.7754 44.8741 84.7727 43.5846C86.0193 42.0372 86.7673 39.9741 86.7673 37.653C86.7673 35.3319 86.2687 33.5266 85.022 32.2371C83.7753 30.9476 82.2794 30.174 80.534 30.174ZM79.786 32.7529C82.5287 32.7529 83.7753 35.3319 83.7753 37.9109C83.7753 41.2635 82.2794 43.3267 79.786 43.3267C78.0407 43.3267 76.5447 42.0372 76.2954 40.4898C76.2954 40.2319 76.2954 39.9741 76.2954 39.4583V36.8793C76.2954 36.6214 76.2954 36.3635 76.2954 36.1056V35.8477C76.5447 34.0424 78.0407 32.7529 79.786 32.7529Z" fill="#CACACA"/>
<path d="M95.9926 30.174C93.9979 30.174 92.2526 30.9476 91.2553 32.495V30.4318H88.5126V30.6897C88.5126 31.9792 88.5126 33.2687 88.5126 35.3319V51.3215H91.5046V43.8425C92.5019 44.8741 93.9979 45.6478 95.7432 45.6478C97.4885 45.6478 99.2339 44.8741 100.231 43.5846C101.478 42.0372 102.226 39.9741 102.226 37.653C102.226 35.3319 101.727 33.5266 100.481 32.2371C99.2339 30.9476 97.7379 30.174 95.9926 30.174ZM95.2446 32.7529C97.9872 32.7529 99.2339 35.3319 99.2339 37.9109C99.2339 41.2635 97.7379 43.3267 95.2446 43.3267C93.4993 43.3267 92.0033 42.0372 91.7539 40.4898C91.7539 40.2319 91.7539 39.9741 91.7539 39.4583V36.8793C91.7539 36.6214 91.7539 36.3635 91.7539 36.1056V35.8477C92.0033 34.0424 93.4993 32.7529 95.2446 32.7529Z" fill="#CACACA"/>
<path d="M115.44 33.5266C112.698 32.495 111.7 31.4634 111.7 29.916C111.7 28.6265 112.698 27.0791 115.191 27.0791C117.186 27.0791 118.432 27.8528 118.682 28.1107L118.931 28.3686L119.679 25.7896H119.43C118.931 25.5318 117.435 24.7581 114.942 24.7581C111.202 24.7581 108.459 27.0791 108.459 30.4318C108.459 33.2687 110.204 35.074 113.695 36.3635C116.188 37.3951 117.186 38.4267 117.186 40.232C117.186 42.2951 115.69 43.3267 113.446 43.3267C111.95 43.3267 110.204 42.8109 109.207 42.0372L108.958 41.7794L108.21 44.3583H108.459C109.706 45.132 111.7 45.6478 113.446 45.6478C118.682 45.6478 120.427 42.2951 120.427 39.4583C120.676 36.8793 119.18 35.074 115.44 33.5266Z" fill="#CACACA"/>
<path d="M125.912 27.0791L122.92 28.1107V30.6897H120.676V33.2687H122.92V41.0056C122.92 42.8109 123.17 44.1004 123.918 44.8741C124.666 45.6478 125.663 46.1636 126.91 46.1636C128.156 46.1636 128.904 45.9057 129.154 45.9057H129.403L129.154 43.3267H128.904C128.406 43.3267 128.156 43.5846 127.408 43.5846C126.162 43.5846 125.663 42.8109 125.663 41.0056V33.5266H129.652V30.9476H125.912V27.0791Z" fill="#CACACA"/>
<path d="M137.132 30.174C132.894 30.174 129.902 33.5266 129.902 38.1688C129.902 42.811 132.644 45.9058 136.883 45.9058C140.374 45.9058 144.114 43.3268 144.114 37.9109C144.114 35.5898 143.366 33.7845 142.119 32.495C140.872 30.9476 139.127 30.174 137.132 30.174ZM137.132 32.7529C139.875 32.7529 141.122 35.5898 141.122 37.9109C141.122 41.0057 139.376 43.3268 137.132 43.3268C134.888 43.3268 133.143 41.0057 133.143 37.9109C132.894 35.3319 134.14 32.7529 137.132 32.7529Z" fill="#CACACA"/>
<path d="M153.339 30.4318C152.84 30.4318 152.591 30.174 152.341 30.174C150.845 30.174 149.349 31.2055 148.601 32.7529V30.6897H145.859V30.9476C145.859 32.2371 145.859 33.5266 145.859 35.3319V45.6478H148.851V37.653C148.851 37.1372 148.851 36.8793 148.851 36.3635C149.1 34.5582 150.347 33.2687 152.092 33.2687C152.341 33.2687 152.591 33.2687 152.84 33.2687H153.089V30.4318H153.339Z" fill="#CACACA"/>
<path d="M160.071 30.174C156.081 30.174 153.339 33.5266 153.339 38.1688C153.339 42.8109 156.081 45.6478 160.569 45.6478C162.813 45.6478 164.309 45.132 165.307 44.6162H165.556L165.057 42.2952H164.808C164.06 42.553 162.813 43.0688 161.068 43.0688C159.821 43.0688 156.829 42.553 156.58 38.4267H166.304V38.1688C166.304 37.9109 166.304 37.3951 166.304 36.8793C166.055 34.0424 164.559 30.174 160.071 30.174ZM159.821 32.495C160.819 32.495 161.567 32.7529 162.065 33.2687C162.813 34.3003 163.063 35.5898 163.063 36.1056H156.081C156.58 34.5582 157.577 32.495 159.821 32.495Z" fill="#CACACA"/>
<path d="M54.6036 10.8316C55.3516 10.8316 56.3489 10.5737 57.5955 10.5737C59.5902 10.5737 60.8368 11.0895 61.8342 11.8632C62.8315 12.6369 63.3301 13.9264 63.3301 15.4738C63.3301 17.0212 62.8315 18.3106 61.8342 19.3422C60.8368 20.3738 59.3409 20.6317 57.0969 20.6317C56.0996 20.6317 55.3516 20.6317 54.6036 20.6317V10.8316ZM56.0996 19.3422C56.3489 19.3422 56.8476 19.3422 57.3462 19.3422C60.3382 19.3422 61.8342 17.7948 61.8342 15.2159C61.8342 12.8948 60.3382 11.3474 57.5955 11.3474C56.8476 11.3474 56.3489 11.3474 56.0996 11.6053V19.3422Z" fill="#CACACA"/>
<path d="M68.0675 20.6317C66.0728 20.6317 64.5768 19.3422 64.5768 17.0211C64.5768 14.7 66.3222 13.4105 68.3168 13.4105C70.5608 13.4105 72.0568 14.9579 72.0568 17.0211C72.0568 19.3422 70.0621 20.6317 68.0675 20.6317ZM68.3168 19.6001C69.5635 19.6001 70.5608 18.5685 70.5608 16.7632C70.5608 15.4737 69.8128 14.1842 68.3168 14.1842C66.8208 14.1842 66.0728 15.4737 66.0728 17.0211C66.0728 18.3106 66.8208 19.6001 68.3168 19.6001Z" fill="#CACACA"/>
<path d="M74.0514 13.4105L75.0487 17.0211C75.2981 17.7948 75.5474 18.5685 75.5474 19.3422C75.7967 18.5685 76.0461 17.7948 76.2954 17.0211L77.5421 13.4105H78.7887L80.0354 17.0211C80.2847 17.7948 80.534 18.5685 80.7834 19.3422C80.7834 18.5685 81.0327 17.7948 81.282 17.0211L82.2793 13.4105H83.526L81.0327 20.3738H79.786L78.5394 17.0211C78.29 16.2474 78.0407 15.4737 77.7914 14.7C77.5421 15.4737 77.2927 16.2474 77.0434 17.0211L75.7967 20.3738H74.5501L72.3061 13.4105H74.0514Z" fill="#CACACA"/>
<path d="M85.022 15.2159C85.022 14.4422 85.022 13.9264 85.022 13.4106H86.2686V14.4422C86.518 13.6685 87.5153 13.1527 88.7619 13.1527C89.7593 13.1527 91.5046 13.6685 91.5046 16.2475V20.3739H90.2579V16.2475C90.2579 15.2159 89.7593 14.1843 88.5126 14.1843C87.5153 14.1843 87.0166 14.7001 86.7673 15.4738C86.7673 15.7317 86.7673 15.9896 86.7673 15.9896V20.116H85.5206V15.2159H85.022Z" fill="#CACACA"/>
<path d="M93.7485 10.0579H94.9952V20.3738H93.7485V10.0579Z" fill="#CACACA"/>
<path d="M100.48 20.6317C98.4858 20.6317 96.9899 19.3422 96.9899 17.0211C96.9899 14.7 98.7352 13.4105 100.73 13.4105C102.974 13.4105 104.47 14.9579 104.47 17.0211C104.22 19.3422 102.226 20.6317 100.48 20.6317ZM100.48 19.6001C101.727 19.6001 102.724 18.5685 102.724 16.7632C102.724 15.4737 101.976 14.1842 100.48 14.1842C98.9845 14.1842 98.2365 15.4737 98.2365 17.0211C98.2365 18.3106 98.9845 19.6001 100.48 19.6001Z" fill="#CACACA"/>
<path d="M111.202 18.8264C111.202 19.3422 111.202 20.1159 111.202 20.6317H109.955V19.858C109.456 20.1159 108.708 20.6317 107.462 20.6317C105.966 20.6317 105.218 19.6001 105.218 18.5685C105.218 16.7632 106.714 15.9895 109.706 15.9895V15.7316C109.706 15.2158 109.456 14.1842 107.96 14.1842C107.212 14.1842 106.464 14.4421 105.966 14.7L105.716 13.9263C106.215 13.6684 107.212 13.4105 108.21 13.4105C110.454 13.4105 111.202 14.9579 111.202 16.2474V18.8264ZM109.955 16.7632C108.459 16.7632 106.714 17.0211 106.714 18.3106C106.714 19.0843 107.212 19.6001 107.96 19.6001C108.958 19.6001 109.706 19.0843 109.706 18.3106C109.706 18.0527 109.706 18.0527 109.706 17.7948V16.7632H109.955Z" fill="#CACACA"/>
<path d="M119.928 10.0579V18.5684C119.928 19.0842 119.928 19.8579 119.928 20.3737H118.682V19.0842C118.183 19.8579 117.186 20.6316 116.188 20.6316C114.443 20.6316 112.947 19.0842 112.947 17.021C112.947 14.7 114.443 13.1526 116.438 13.1526C117.684 13.1526 118.432 13.6684 118.682 14.1842V10.0579H119.928ZM118.432 16.2474C118.432 15.9895 118.432 15.9895 118.432 15.7316C118.183 14.9579 117.435 14.1842 116.438 14.1842C114.942 14.1842 114.194 15.2158 114.194 16.7632C114.194 18.3105 114.942 19.3421 116.438 19.3421C117.435 19.3421 118.183 18.8263 118.432 17.7947C118.432 17.5368 118.432 17.5368 118.432 17.2789V16.2474Z" fill="#CACACA"/>
<path d="M128.655 20.6317C126.66 20.6317 125.164 19.3422 125.164 17.0211C125.164 14.7 126.91 13.4105 128.904 13.4105C131.148 13.4105 132.644 14.9579 132.644 17.0211C132.395 19.3422 130.4 20.6317 128.655 20.6317ZM128.655 19.6001C129.902 19.6001 130.899 18.5685 130.899 16.7632C130.899 15.4737 130.151 14.1842 128.655 14.1842C127.159 14.1842 126.411 15.4737 126.411 17.0211C126.411 18.3106 127.159 19.6001 128.655 19.6001Z" fill="#CACACA"/>
<path d="M134.14 15.2159C134.14 14.4422 134.14 13.9264 134.14 13.4106H135.387V14.4422C135.636 13.6685 136.634 13.1527 137.88 13.1527C138.878 13.1527 140.623 13.6685 140.623 16.2475V20.3739H139.376V16.2475C139.376 15.2159 138.878 14.1843 137.631 14.1843C136.634 14.1843 136.135 14.7001 135.886 15.4738C135.886 15.7317 135.886 15.9896 135.886 15.9896V20.116H134.639V15.2159H134.14Z" fill="#CACACA"/>
<path d="M147.604 11.6053V13.4106H149.599V14.4422H147.604V18.0528C147.604 18.8264 147.853 19.3422 148.601 19.3422C148.851 19.3422 149.1 19.3422 149.349 19.3422V20.3738C149.1 20.3738 148.601 20.6317 148.103 20.6317C147.355 20.6317 146.856 20.3738 146.607 20.1159C146.358 19.6001 146.108 19.0843 146.108 18.3106V14.4422H144.862V13.4106H146.108V12.1211L147.604 11.6053Z" fill="#CACACA"/>
<path d="M151.095 10.0579H152.341V14.4421C152.591 14.1842 152.84 13.6684 153.339 13.6684C153.837 13.4105 154.336 13.4105 154.835 13.4105C155.832 13.4105 157.577 13.9263 157.577 16.5053V20.6316H156.331V16.2474C156.331 15.2158 155.832 14.1842 154.585 14.1842C153.588 14.1842 153.089 14.7 152.84 15.4737C152.84 15.7316 152.84 15.7316 152.84 15.9895V20.1158H151.593V10.0579H151.095Z" fill="#CACACA"/>
<path d="M160.569 17.0211C160.569 18.8264 161.816 19.3422 163.063 19.3422C164.06 19.3422 164.559 19.0843 165.057 19.0843L165.307 19.858C164.808 20.1159 164.06 20.3738 162.813 20.3738C160.569 20.3738 159.073 18.8264 159.073 16.7632C159.073 14.7001 160.32 12.8948 162.564 12.8948C165.057 12.8948 165.556 14.9579 165.556 16.2474C165.556 16.5053 165.556 16.7632 165.556 16.7632L160.569 17.0211ZM164.559 16.2474C164.559 15.4737 164.309 14.1843 162.564 14.1843C161.068 14.1843 160.569 15.4737 160.569 16.2474H164.559Z" fill="#CACACA"/>
</svg>
