<svg width="177" height="62" viewBox="0 0 177 62" fill="none" xmlns="http://www.w3.org/2000/svg">
<path d="M168.63 61.6375H8.36996C3.69263 61.6375 0 57.769 0 52.8689V9.02641C0 3.86846 3.69263 0 8.36996 0H168.63C173.307 0 177 3.86846 177 8.76851V52.611C177 57.5111 173.307 61.6375 168.63 61.6375ZM8.36996 1.28949C4.43115 1.28949 1.23088 4.64215 1.23088 8.76851V52.611C1.23088 56.7374 4.43115 60.0901 8.36996 60.0901H168.63C172.569 60.0901 175.769 56.7374 175.769 52.611V8.76851C175.769 4.64215 172.569 1.28949 168.63 1.28949H8.36996Z" fill="#CACACA"/>
<path d="M14.5244 53.1268C14.2782 53.1268 14.032 53.1268 13.7858 52.8689C13.2935 52.611 13.0473 52.0952 13.0473 51.5794V13.9264C13.0473 13.1527 13.2935 12.6369 13.7858 12.379C14.2782 12.1211 15.0167 12.1211 15.7552 12.379L38.8957 26.3055C38.8957 26.3055 45.7886 30.4318 46.5271 30.9476C47.0195 31.2055 47.5118 31.7213 47.5118 32.2371C47.5118 32.495 47.5118 33.2687 46.5271 33.7845L15.5091 52.8689C15.0167 53.1268 14.7705 53.1268 14.5244 53.1268ZM14.7705 13.4106C14.7705 13.4106 14.5244 13.4106 14.7705 13.4106C14.5244 13.4106 14.5244 13.6685 14.5244 13.9264V51.5794C14.5244 51.8373 14.5244 51.8373 14.5244 51.8373H14.7705L46.0348 33.0108C46.281 32.7529 46.281 32.7529 46.281 32.7529C46.281 32.7529 46.281 32.7529 46.0348 32.495C45.2963 31.9792 38.6495 28.1107 38.4034 27.8528L15.2629 13.6685C15.0167 13.6685 14.7705 13.4106 14.7705 13.4106Z" fill="#CACACA"/>
<path d="M13.2935 54.6742V10.8317L34.4645 32.7529L13.2935 54.6742ZM14.5243 13.6685V51.5794L32.7413 32.7529L14.5243 13.6685Z" fill="#CACACA"/>
<path d="M33.4798 33.5266L13.2935 12.637V11.0896L14.2782 11.6054L39.8804 27.0792L33.4798 33.5266ZM17.2323 14.958L33.4798 31.7213L37.6648 27.3371L17.2323 14.958Z" fill="#CACACA"/>
<path d="M13.2935 54.4163V53.1268L13.5396 52.8689L33.726 31.9791L40.1266 38.4266L13.2935 54.4163ZM33.4799 33.5265L17.2323 50.2899L37.6648 37.9108L33.4799 33.5265Z" fill="#CACACA"/>
<path d="M38.6495 38.9425L32.4951 32.7529L38.6495 26.5634L48.9889 32.7529L38.6495 38.9425ZM34.2183 32.7529L38.6495 37.3951L46.281 32.7529L38.6495 28.1107L34.2183 32.7529Z" fill="#CACACA"/>
<path d="M137.366 40.4899C136.627 40.4899 135.889 40.232 135.396 39.9741C134.904 39.7162 134.166 39.2004 133.919 38.6846H133.673C133.673 39.4583 133.919 39.9741 133.919 40.7478V45.6478H132.196V28.3686H133.673L133.919 29.916C134.412 29.1423 134.904 28.8844 135.396 28.6265C135.889 28.3686 136.627 28.1107 137.366 28.1107C138.843 28.1107 140.074 28.6265 140.812 29.6581C141.551 30.6897 142.043 32.2371 142.043 34.3003C142.043 36.3635 141.551 37.653 140.812 38.9425C140.074 39.9741 138.843 40.4899 137.366 40.4899ZM137.12 29.916C135.889 29.916 135.15 30.1739 134.658 30.9476C134.166 31.7213 133.919 32.7529 133.919 34.0424V34.5582C133.919 36.1056 134.166 37.3951 134.658 38.1688C135.15 38.9425 136.135 39.2004 137.12 39.2004C138.104 39.2004 138.843 38.6846 139.335 37.9109C139.828 37.1372 140.074 35.8477 140.074 34.5582C140.074 33.0108 139.828 31.9792 139.335 31.2055C138.843 30.1739 138.104 29.916 137.12 29.916Z" fill="#CACACA"/>
<path d="M145.982 40.4899H144.259V23.4688H145.982V40.4899Z" fill="#CACACA"/>
<path d="M155.829 40.4898L155.583 38.6845C155.09 39.4582 154.352 39.974 153.86 40.2319C153.367 40.4898 152.629 40.7477 151.644 40.7477C150.413 40.7477 149.675 40.4898 148.936 39.7161C148.197 39.2003 147.951 38.1687 147.951 37.1371C147.951 34.8161 149.675 33.5266 153.367 33.2687H155.337V32.495C155.337 31.4634 155.09 30.9476 154.844 30.4318C154.352 29.916 153.86 29.6581 153.121 29.6581C152.136 29.6581 151.152 29.916 149.921 30.6897L149.428 29.4002C149.921 29.1423 150.659 28.8844 151.152 28.6265C151.89 28.3687 152.629 28.3687 153.121 28.3687C154.352 28.3687 155.583 28.6265 156.075 29.4002C156.814 29.916 157.06 30.9476 157.06 32.495V40.4898H155.829ZM152.136 39.2003C153.121 39.2003 154.106 38.9424 154.598 38.1687C155.09 37.6529 155.583 36.6213 155.583 35.5898V34.5582H153.86C152.382 34.5582 151.398 34.8161 150.905 35.3319C150.413 35.8476 149.921 36.3634 149.921 37.1371C149.921 37.9108 150.167 38.1687 150.413 38.6845C150.905 38.9424 151.398 39.2003 152.136 39.2003Z" fill="#CACACA"/>
<path d="M158.291 28.6266H160.014L162.476 35.3319C162.968 36.8793 163.46 37.9109 163.46 38.6846C163.46 38.4267 163.707 37.653 163.953 36.8793C164.199 36.1056 165.184 33.2687 166.661 28.6266H168.384L163.46 42.0373C162.968 43.3267 162.476 44.3583 161.737 44.8741C160.999 45.3899 160.26 45.6478 159.275 45.6478C158.783 45.6478 158.291 45.6478 157.798 45.3899V43.8425C158.291 43.8425 158.537 44.1004 159.029 44.1004C160.26 44.1004 160.999 43.3267 161.491 42.0373L162.229 40.232L158.291 28.6266Z" fill="#CACACA"/>
<path d="M105.609 29.6582C106.102 30.174 107.332 31.2056 107.332 33.0108C107.332 34.8161 106.348 35.5898 105.363 36.6214C105.117 36.8793 104.625 37.3951 104.625 37.9109C104.625 38.4267 104.871 38.6846 105.363 38.9425L106.102 39.7161C107.086 40.7477 108.071 41.5214 108.071 43.0688C108.071 45.3899 105.855 47.7109 101.917 47.7109C98.4701 47.7109 96.7469 45.9057 96.7469 44.1004C96.7469 43.3267 97.2392 42.0372 98.4701 41.0056C99.9472 39.974 101.917 39.974 102.901 39.974C102.655 39.4582 102.163 38.9425 102.163 38.1688C102.163 37.653 102.163 37.3951 102.409 37.1372C102.163 37.1372 101.917 37.1372 101.67 37.1372C99.2086 37.1372 97.7316 35.074 97.7316 33.2687C97.7316 32.2371 98.2239 30.9477 99.2086 29.9161C100.44 28.6266 102.163 28.6266 103.394 28.6266H108.317L106.84 29.4003H105.609V29.6582ZM103.886 40.7477C103.64 40.7477 103.64 40.7477 103.394 40.7477C103.147 40.7477 101.917 40.7477 100.932 41.2635C100.44 41.5214 98.9625 42.0372 98.9625 43.8425C98.9625 45.6478 100.686 46.9373 103.147 46.9373C105.363 46.9373 106.594 45.9057 106.594 44.3583C106.594 42.553 105.855 42.0372 103.886 40.7477ZM104.625 35.8477C105.117 35.3319 105.117 34.5582 105.117 34.0424C105.117 32.2371 104.132 29.4003 102.163 29.4003C101.424 29.4003 100.932 29.6582 100.44 30.174C99.9472 30.6898 99.9472 31.4634 99.9472 31.9792C99.9472 33.5266 100.932 36.3635 102.901 36.3635C103.64 36.6214 104.378 36.3635 104.625 35.8477Z" fill="#CACACA"/>
<path d="M90.8387 40.2319C87.146 40.2319 85.1766 37.1372 85.1766 34.3003C85.1766 30.9476 87.6384 28.3687 91.331 28.3687C94.7775 28.3687 96.993 31.2055 96.993 34.3003C96.7469 37.1372 94.5313 40.2319 90.8387 40.2319ZM93.7928 38.1688C94.2851 37.3951 94.5313 36.3635 94.5313 35.3319C94.5313 33.2687 93.5466 28.8844 90.5925 28.8844C89.854 28.8844 89.1154 29.1423 88.3769 29.6581C87.3922 30.4318 87.3922 31.7213 87.3922 32.7529C87.3922 35.3319 88.6231 39.2003 91.331 39.2003C92.0695 39.4582 93.0542 38.9424 93.7928 38.1688Z" fill="#CACACA"/>
<path d="M77.7914 40.2319C74.0987 40.2319 72.1293 37.1372 72.1293 34.3003C72.1293 30.9476 74.5911 28.3687 78.2837 28.3687C81.7302 28.3687 83.9457 31.2055 83.9457 34.3003C83.9457 37.1372 81.7302 40.2319 77.7914 40.2319ZM80.7455 38.1688C81.2378 37.3951 81.484 36.3635 81.484 35.3319C81.484 33.2687 80.4993 28.8844 77.5452 28.8844C76.8067 28.8844 76.0681 29.1423 75.3296 29.6581C74.3449 30.4318 74.3449 31.7213 74.3449 32.7529C74.3449 35.3319 75.5758 39.2003 78.2837 39.2003C79.2684 39.4582 80.2531 38.9424 80.7455 38.1688Z" fill="#CACACA"/>
<path d="M70.4061 39.9741L66.9596 40.7478C65.4826 41.0057 64.2517 41.2635 63.0208 41.2635C56.3741 41.2635 53.9124 36.1056 53.9124 32.2372C53.9124 27.3371 57.3588 22.9529 63.5132 22.9529C64.7441 22.9529 65.9749 23.2108 67.2058 23.4687C68.929 23.9845 69.9137 24.7582 70.4061 25.0161L68.4367 27.0792L67.6982 27.3371L68.1905 26.3055C67.452 25.5318 65.9749 23.9845 63.0208 23.9845C59.3282 23.9845 56.3741 27.0792 56.3741 31.2056C56.3741 35.8477 59.5744 40.232 64.7441 40.232C66.2211 40.232 66.9596 39.9741 67.6982 39.7162V35.5898L64.0055 35.8477L65.9749 34.8161H70.8984L70.1599 35.3319C69.9137 35.5898 69.9137 35.5898 69.9137 35.8477C69.9137 36.1056 69.9137 36.8793 69.9137 37.1372V39.9741H70.4061Z" fill="#CACACA"/>
<path d="M113.241 39.2003C112.502 39.2003 112.256 38.9424 112.256 37.9108V37.6529V23.7265C112.256 23.7265 112.256 23.7265 112.256 23.4686C112.256 22.695 112.502 22.4371 113.241 21.9213H109.794L108.071 23.2107H109.794V37.6529V38.4266C109.794 38.9424 109.794 38.9424 109.056 39.7161H113.241L114.225 39.2003C113.979 39.2003 113.487 39.2003 113.241 39.2003Z" fill="#CACACA"/>
<path d="M122.841 39.4583C122.595 39.7162 122.349 39.7162 122.103 39.9741C121.364 40.232 120.626 40.4899 119.887 40.4899C119.149 40.4899 117.918 40.4899 116.687 39.4583C114.964 38.1688 114.225 36.1056 114.225 34.3003C114.225 30.4319 117.179 28.6266 119.641 28.6266C120.38 28.6266 121.364 28.8845 122.103 29.4003C123.334 30.174 123.58 31.2056 123.826 31.7214L118.164 33.7845L116.441 34.0424C116.933 37.1372 119.149 38.9425 121.364 38.9425C122.595 38.9425 123.334 38.4267 124.318 38.1688L122.841 39.4583ZM120.626 31.9793C121.118 31.7214 121.364 31.7214 121.364 31.2056C121.364 30.174 120.38 29.1424 119.149 29.1424C118.164 29.1424 116.441 29.9161 116.441 32.495C116.441 33.0108 116.441 33.2687 116.441 33.7845L120.626 31.9793Z" fill="#CACACA"/>
<path d="M125.057 28.6266V30.174H124.811L125.057 28.6266H124.318V28.3687H125.549V28.6266H125.057Z" fill="#CACACA"/>
<path d="M127.273 30.174V28.6266L126.78 30.174H126.534L126.042 28.6266V30.174H125.796V28.3687H126.042L126.534 29.9161L127.026 28.3687H127.273V30.174Z" fill="#CACACA"/>
<path d="M58.5897 18.0527H57.3588C57.3588 17.7948 57.3588 17.279 57.1127 16.5053H55.3894C55.1432 17.279 55.1432 17.7948 55.1432 18.0527H53.9124C53.9124 18.0527 54.1585 17.0211 54.8971 15.4738C55.3894 13.9264 55.8818 13.1527 55.8818 12.8948H57.3588C57.3588 13.1527 57.605 13.9264 58.0974 15.4738C58.3435 17.0211 58.5897 17.7948 58.5897 18.0527ZM56.8665 15.7317C56.3741 14.4422 56.1279 13.6685 56.1279 13.6685C56.1279 13.6685 55.8818 14.4422 55.3894 15.7317H56.8665Z" fill="#CACACA"/>
<path d="M63.5132 18.0528H62.5285C62.5285 18.0528 62.2823 17.2791 61.5438 16.5054C60.8053 15.4737 60.3129 14.7 60.3129 14.4421C60.3129 14.9579 60.3129 15.4737 60.3129 15.9895C60.3129 16.5054 60.3129 17.2791 60.3129 18.3107H59.3282C59.3282 17.537 59.3282 16.5054 59.3282 15.7316C59.3282 14.7 59.3282 13.9263 59.3282 13.4105H60.3129C60.3129 13.6684 60.5591 14.1842 61.2976 14.9579C62.0361 15.9895 62.2823 16.7633 62.5285 17.0212C62.5285 16.5054 62.5285 15.9895 62.5285 15.4737C62.5285 14.7 62.5285 14.1842 62.5285 13.4105H63.5132C63.5132 13.9263 63.5132 14.9579 63.5132 15.7316C63.267 16.2474 63.5132 17.0212 63.5132 18.0528Z" fill="#CACACA"/>
<path d="M68.6829 15.2159C68.6829 15.9896 68.4367 16.5054 67.9443 17.0212C67.6982 17.7948 66.9596 18.0527 66.2211 18.0527C65.9749 18.0527 65.2364 18.0527 64.7441 18.0527C64.7441 17.279 64.7441 16.5054 64.7441 15.4738C64.7441 14.4422 64.7441 13.6685 64.7441 13.1527H65.4826C65.4826 13.1527 65.7288 13.1527 65.9749 13.1527C66.2211 13.1527 66.2211 13.1527 66.4673 13.1527C67.452 13.1527 67.9443 13.4106 68.4367 13.9264C68.6829 13.9264 68.6829 14.7001 68.6829 15.2159ZM67.6982 15.4738C67.6982 14.958 67.452 14.4422 67.2058 14.1843C66.9596 13.9264 66.4673 13.6685 65.9749 13.6685C65.9749 13.6685 65.7288 13.6685 65.4826 13.6685C65.4826 14.1843 65.4826 14.7001 65.4826 15.2159C65.4826 15.7317 65.4826 16.5054 65.4826 17.0212C65.7288 17.0212 65.7288 17.0212 65.9749 17.0212C66.4673 17.0212 66.9596 16.7633 67.2058 16.5054C67.6982 16.2475 67.6982 15.9896 67.6982 15.4738Z" fill="#CACACA"/>
<path d="M73.6064 18.0527H72.6217C72.3755 17.0212 72.1293 16.5054 71.8832 16.2475C71.637 15.9896 71.3908 15.9896 71.1446 15.9896C70.8985 15.9896 70.8985 15.9896 70.6523 15.9896C70.6523 16.7633 70.6523 17.279 70.6523 18.0527H69.6676C69.6676 17.279 69.6676 16.5054 69.6676 15.4738C69.6676 14.4422 69.6676 13.6685 69.6676 13.1527H70.4061C70.4061 13.1527 70.6523 13.1527 70.8985 13.1527C71.1446 13.1527 71.3908 13.1527 71.637 13.1527C72.8679 13.1527 73.3602 13.6685 73.3602 14.4422C73.3602 14.958 73.114 15.4738 72.3755 15.7317C72.6217 15.7317 72.8679 15.9896 73.114 16.2475C73.114 16.5054 73.3602 17.0212 73.6064 18.0527ZM72.3755 14.4422C72.3755 13.9264 72.1293 13.6685 71.3908 13.6685C71.1446 13.6685 70.8985 13.6685 70.8985 13.6685C70.8985 14.1843 70.8985 14.7001 70.8985 15.2159C71.1446 15.2159 71.1446 15.2159 71.1446 15.2159C71.8832 15.2159 72.3755 14.958 72.3755 14.4422Z" fill="#CACACA"/>
<path d="M79.0222 15.2159C79.0222 15.9896 78.776 16.7632 78.2837 17.279C77.7914 17.7948 77.299 18.0527 76.5605 18.0527C75.822 18.0527 75.3296 17.7948 74.8373 17.279C74.3449 16.7632 74.0988 16.2474 74.0988 15.4738C74.0988 14.7001 74.3449 13.9264 74.8373 13.4106C75.5758 13.1527 76.0681 12.8948 76.8067 12.8948C77.5452 12.8948 78.0375 13.1527 78.5299 13.6685C78.776 13.9264 79.0222 14.7001 79.0222 15.2159ZM78.0375 15.4738C78.0375 14.958 77.7914 14.4422 77.5452 14.1843C77.299 13.9264 77.0528 13.6685 76.5605 13.6685C76.3143 13.6685 75.822 13.9264 75.5758 14.1843C75.3296 14.4422 75.0834 14.958 75.0834 15.4738C75.0834 15.9896 75.3296 16.5053 75.5758 16.7632C75.822 17.0211 76.0681 17.279 76.5605 17.279C76.8067 17.279 77.299 17.0211 77.5452 16.7632C77.7914 16.2474 78.0375 15.9896 78.0375 15.4738Z" fill="#CACACA"/>
<path d="M80.9916 18.0527H80.007C80.007 17.279 80.007 16.2475 80.007 15.4738C80.007 14.4422 80.007 13.6685 80.007 13.1527H80.9916C80.9916 13.9264 80.9916 14.7001 80.9916 15.4738C80.9916 16.2475 80.9916 17.0212 80.9916 18.0527Z" fill="#CACACA"/>
<path d="M86.4075 15.2159C86.4075 15.9896 86.1613 16.5054 85.669 17.0212C85.4228 17.7948 84.6843 18.0527 83.9457 18.0527C83.6996 18.0527 82.961 18.0527 82.4687 18.0527C82.4687 17.279 82.4687 16.5054 82.4687 15.4738C82.4687 14.4422 82.4687 13.6685 82.4687 13.1527H83.2072C83.2072 13.1527 83.4534 13.1527 83.6996 13.1527C83.9457 13.1527 83.9457 13.1527 84.1919 13.1527C85.1766 13.1527 85.669 13.4106 86.1613 13.9264C86.1613 13.9264 86.4075 14.7001 86.4075 15.2159ZM85.4228 15.4738C85.4228 14.958 85.1766 14.4422 84.9304 14.1843C84.6843 13.9264 84.1919 13.6685 83.6996 13.6685C83.6996 13.6685 83.4534 13.6685 83.2072 13.6685C83.2072 14.1843 83.2072 14.7001 83.2072 15.2159C83.2072 15.7317 83.2072 16.5054 83.2072 17.0212C83.4534 17.0212 83.4534 17.0212 83.6996 17.0212C84.1919 17.0212 84.6843 16.7633 84.9304 16.5054C85.4228 16.2475 85.4228 15.9896 85.4228 15.4738Z" fill="#CACACA"/>
<path d="M93.5466 18.0527H92.3157C92.3157 17.7948 92.3157 17.279 92.0695 16.5053H90.3463C90.1001 17.279 90.1001 17.7948 90.1001 18.0527H88.8693C88.8693 18.0527 89.1154 17.0211 89.854 15.4738C90.3463 13.9264 90.8387 13.1527 90.8387 12.8948H92.3157C92.3157 13.1527 92.5619 13.9264 93.0542 15.4738C93.3004 17.0211 93.5466 17.7948 93.5466 18.0527ZM91.8234 15.7317C91.331 14.4422 91.0848 13.6685 91.0848 13.6685C91.0848 13.6685 90.8387 14.4422 90.3463 15.7317H91.8234Z" fill="#CACACA"/>
<path d="M97.7316 14.1843C97.7316 14.7 97.4854 15.2158 96.993 15.4737C96.5007 15.7316 96.0083 15.9895 95.2698 15.9895H95.0236C95.0236 16.5053 95.0236 17.0211 95.0236 17.7948H94.0389C94.0389 17.0211 94.0389 16.2474 94.0389 15.2158C94.0389 14.1843 94.0389 13.4106 94.0389 12.8948H94.7775C94.7775 12.8948 95.0236 12.8948 95.2698 12.8948C95.516 12.8948 95.7622 12.8948 96.0083 12.8948C96.5007 12.8948 96.993 12.8948 97.2392 13.1527C97.7316 13.4106 97.7316 13.6685 97.7316 14.1843ZM96.993 14.4422C96.993 13.9264 96.7469 13.6685 96.0083 13.6685C95.7622 13.6685 95.7622 13.6685 95.516 13.6685C95.516 14.1843 95.516 14.7 95.516 15.2158H95.7622C96.5007 15.2158 96.993 14.9579 96.993 14.4422Z" fill="#CACACA"/>
<path d="M102.163 14.1843C102.163 14.7 101.917 15.2158 101.424 15.4737C100.932 15.7316 100.439 15.9895 99.701 15.9895H99.4548C99.4548 16.5053 99.4548 17.0211 99.4548 17.7948H98.4701C98.4701 17.0211 98.4701 16.2474 98.4701 15.2158C98.4701 14.1843 98.4701 13.4106 98.4701 12.8948H99.2086C99.2086 12.8948 99.4548 12.8948 99.701 12.8948C99.9471 12.8948 100.193 12.8948 100.439 12.8948C100.932 12.8948 101.424 12.8948 101.67 13.1527C102.163 13.4106 102.163 13.6685 102.163 14.1843ZM101.424 14.4422C101.424 13.9264 101.178 13.6685 100.439 13.6685C100.193 13.6685 100.193 13.6685 99.9471 13.6685C99.9471 14.1843 99.9471 14.7 99.9471 15.2158H100.193C100.932 15.2158 101.424 14.9579 101.424 14.4422Z" fill="#CACACA"/>
<path d="M109.548 15.2159C109.548 15.9896 109.302 16.7632 108.809 17.279C108.317 17.7948 107.825 18.0527 107.086 18.0527C106.348 18.0527 105.855 17.7948 105.363 17.279C104.871 16.7632 104.624 16.2474 104.624 15.4738C104.624 14.7001 104.871 13.9264 105.363 13.4106C105.855 13.1527 106.594 12.8948 107.332 12.8948C107.825 12.8948 108.317 12.8948 108.809 13.4106C109.302 13.9264 109.548 14.7001 109.548 15.2159ZM108.563 15.4738C108.563 14.958 108.317 14.4422 108.071 14.1843C107.825 13.9264 107.579 13.6685 107.086 13.6685C106.84 13.6685 106.348 13.9264 106.102 14.1843C105.855 14.4422 105.855 14.958 105.855 15.4738C105.855 15.9896 106.102 16.5053 106.348 16.7632C106.594 17.0211 106.84 17.279 107.332 17.279C107.579 17.279 108.071 17.0211 108.317 16.7632C108.317 16.2474 108.563 15.9896 108.563 15.4738Z" fill="#CACACA"/>
<path d="M114.471 18.0528H113.487C113.487 18.0528 113.241 17.2791 112.502 16.5054C111.764 15.4738 111.271 14.7001 111.271 14.4422C111.271 14.958 111.271 15.4738 111.271 15.9896C111.271 16.5054 111.271 17.2791 111.271 18.3107H110.286C110.286 17.537 110.286 16.5054 110.286 15.7317C110.286 14.7001 110.286 13.9264 110.286 13.4106H111.271C111.271 13.6685 111.517 14.1843 112.256 14.958C113.241 15.4738 113.487 16.2475 113.733 16.5054C113.733 15.9896 113.733 15.4738 113.733 14.958C113.733 14.1843 113.733 13.6685 113.733 12.8948H114.718C114.718 13.4106 114.718 14.4422 114.718 15.2159C114.471 16.2475 114.471 17.0212 114.471 18.0528Z" fill="#CACACA"/>
</svg>
