<svg width="104" height="57" viewBox="0 0 104 57" fill="none" xmlns="http://www.w3.org/2000/svg">
<path d="M75.6287 8.05098L64.6327 38.2422H99.2155L93.088 30.1912H80.4972L91.5771 0H78.6505L76.3842 6.03823L71.8515 0H48.3486L46.1662 6.03823L41.5496 0H11.3317L15.9483 6.03823L4.11298 38.2422H17.0395L22.3277 23.7336H36.5133L30.3858 15.6826H25.2655L28.1194 8.05098H45.4108L34.3309 38.2422H47.2574L52.5456 23.7336H66.7312L60.6037 15.6826H55.5674L58.3373 8.05098H75.6287Z" fill="white"/>
<path d="M3.86118 47.8027V48.9768H1.42696V50.2348H3.27361V51.4089H1.42696V53.8409H0V47.8027H3.86118Z" fill="white"/>
<path d="M4.61662 50.067C4.7845 49.7316 5.03632 49.3961 5.37207 49.2284C5.70783 49.0607 6.04358 48.8929 6.46327 48.8929C6.79903 48.8929 7.13478 48.9768 7.3866 49.0607C7.63842 49.2284 7.80629 49.3961 7.97417 49.5638V48.8929H9.40113V53.6732H7.97417V53.0023C7.80629 53.2539 7.63842 53.4216 7.3866 53.5055C7.13478 53.6732 6.79903 53.6732 6.46327 53.6732C6.04358 53.6732 5.70783 53.5893 5.37207 53.3377C5.03632 53.17 4.7845 52.8346 4.61662 52.4991C4.44875 52.1636 4.36481 51.6605 4.36481 51.2411C4.36481 50.9057 4.44875 50.4864 4.61662 50.067ZM7.63842 50.4864C7.47054 50.2348 7.21872 50.1509 6.88297 50.1509C6.63115 50.1509 6.37934 50.2348 6.12752 50.4864C5.8757 50.7379 5.8757 50.9895 5.8757 51.4089C5.8757 51.7443 5.95964 52.0798 6.21146 52.2475C6.46327 52.4152 6.63115 52.583 6.96691 52.583C7.21872 52.583 7.47054 52.4991 7.72235 52.2475C7.89023 51.9959 8.05811 51.7443 8.05811 51.4089C7.97417 50.9895 7.80629 50.7379 7.63842 50.4864Z" fill="white"/>
<path d="M14.6892 49.48C15.025 49.8154 15.1929 50.3186 15.1929 50.9895V53.7571H13.7659V51.1573C13.7659 50.8218 13.682 50.5702 13.5141 50.4025C13.3462 50.2348 13.0944 50.1509 12.8426 50.1509C12.5908 50.1509 12.339 50.2348 12.1711 50.4025C12.0032 50.5702 11.9193 50.8218 11.9193 51.1573V53.7571H10.4923V48.9768H11.9193V49.6477C12.0871 49.3961 12.255 49.3123 12.5068 49.1445C12.7587 49.0607 13.0105 48.9768 13.3462 48.9768C13.9338 48.9768 14.3535 49.1445 14.6892 49.48Z" fill="white"/>
<path d="M18.8862 52.4991V53.7571H18.1307C17.6271 53.7571 17.2074 53.5893 16.8716 53.3377C16.5359 53.0862 16.452 52.6668 16.452 52.0798V50.1509H15.8644V48.9768H16.452V47.8027H17.8789V48.9768H18.8022V50.1509H17.8789V52.0798C17.8789 52.2475 17.8789 52.3314 17.9628 52.4152C18.0468 52.4991 18.1307 52.4991 18.2986 52.4991H18.8862Z" fill="white"/>
<path d="M19.6416 50.067C19.8095 49.7316 20.0613 49.3961 20.3971 49.2284C20.7328 49.0607 21.0686 48.8929 21.4883 48.8929C21.8241 48.8929 22.1598 48.9768 22.4116 49.0607C22.6634 49.2284 22.8313 49.3961 22.9992 49.5638V48.8929H24.4262V53.6732H22.9992V53.0023C22.8313 53.2539 22.6634 53.4216 22.4116 53.5055C22.1598 53.6732 21.8241 53.6732 21.4883 53.6732C21.0686 53.6732 20.7328 53.5893 20.3971 53.3377C20.0613 53.17 19.8095 52.8346 19.6416 52.4991C19.4738 52.1636 19.3898 51.6605 19.3898 51.2411C19.3898 50.9057 19.4738 50.4864 19.6416 50.067ZM22.6634 50.4864C22.4956 50.2348 22.2437 50.1509 21.908 50.1509C21.6562 50.1509 21.4044 50.2348 21.1525 50.4864C20.9007 50.7379 20.8168 50.9895 20.8168 51.325C20.8168 51.6605 20.9007 51.9959 21.1525 52.1636C21.4044 52.3314 21.5722 52.4991 21.908 52.4991C22.1598 52.4991 22.4116 52.4152 22.6634 52.1636C22.8313 51.912 22.9992 51.6605 22.9992 51.325C22.9153 50.9895 22.8313 50.7379 22.6634 50.4864Z" fill="white"/>
<path d="M26.2728 53.5893C25.937 53.4216 25.6852 53.2539 25.5173 53.0023C25.3495 52.7507 25.2655 52.4991 25.1816 52.1636H26.6085C26.6085 52.3314 26.6925 52.4991 26.8604 52.583C27.0282 52.6668 27.1961 52.7507 27.364 52.7507C27.5319 52.7507 27.6997 52.7507 27.7837 52.6668C27.8676 52.583 27.9516 52.4991 27.9516 52.4152C27.9516 52.2475 27.8676 52.1636 27.6997 52.0798C27.5319 51.9959 27.364 51.912 27.0282 51.8282C26.6925 51.7443 26.4407 51.6605 26.1888 51.5766C25.937 51.4927 25.7692 51.325 25.6013 51.1573C25.4334 50.9895 25.3495 50.7379 25.3495 50.4025C25.3495 50.1509 25.4334 49.8993 25.6013 49.6477C25.7692 49.3961 25.937 49.2284 26.2728 49.1445C26.5246 48.9768 26.9443 48.9768 27.28 48.9768C27.8676 48.9768 28.3713 49.1445 28.707 49.3961C29.0428 49.7316 29.2106 50.067 29.2946 50.5702H27.9516C27.9516 50.4025 27.8676 50.2348 27.6997 50.1509C27.6158 50.067 27.4479 49.9832 27.1961 49.9832C27.0282 49.9832 26.8604 49.9832 26.7764 50.067C26.6925 50.1509 26.6085 50.2348 26.6085 50.3186C26.6085 50.4864 26.6925 50.5702 26.8604 50.6541C27.0282 50.738 27.1961 50.8218 27.5319 50.8218C27.8676 50.9057 28.2034 50.9895 28.3713 51.0734C28.6231 51.1573 28.7909 51.325 28.9588 51.4927C29.1267 51.6605 29.2106 51.912 29.2106 52.2475C29.2106 52.4991 29.1267 52.7507 28.9588 53.0023C28.7909 53.2539 28.5391 53.4216 28.2873 53.5055C28.0355 53.5893 27.6158 53.6732 27.28 53.6732C26.9443 53.8409 26.6085 53.7571 26.2728 53.5893Z" fill="white"/>
<path d="M35.0864 48.9768L32.0646 56.0214H30.4698L31.561 53.5893L29.6304 48.9768H31.2252L32.3164 51.9121L33.4076 48.9768H35.0864Z" fill="white"/>
<path d="M40.7942 47.8027V48.3059H38.1921V50.5702H40.3745V51.0734H38.1921V53.8409H37.6046V47.8027H40.7942Z" fill="white"/>
<path d="M42.6408 53.5055C42.3051 53.3377 42.0533 53.0023 41.8015 52.6668C41.6336 52.3314 41.4657 51.912 41.4657 51.4089C41.4657 50.9057 41.5496 50.4864 41.8015 50.1509C41.9693 49.8154 42.3051 49.48 42.6408 49.3123C42.9766 49.1445 43.3963 48.9768 43.816 48.9768C44.2357 48.9768 44.6554 49.0607 44.9911 49.3123C45.3269 49.48 45.6626 49.8154 45.8305 50.1509C45.9984 50.4864 46.1663 50.9057 46.1663 51.4089C46.1663 51.912 46.0823 52.3314 45.8305 52.6668C45.6626 53.0023 45.3269 53.3377 44.9911 53.5055C44.6554 53.6732 44.2357 53.8409 43.816 53.8409C43.3963 53.8409 42.9766 53.7571 42.6408 53.5055ZM44.6554 53.0861C44.9072 52.9184 45.159 52.7507 45.3269 52.4152C45.4948 52.1636 45.5787 51.8282 45.5787 51.4089C45.5787 50.9895 45.4948 50.6541 45.3269 50.4025C45.159 50.1509 44.9911 49.8993 44.6554 49.7316C44.4036 49.5638 44.0678 49.5638 43.816 49.5638C43.5642 49.5638 43.2284 49.6477 42.9766 49.7316C42.7248 49.8993 42.473 50.067 42.389 50.4025C42.2211 50.6541 42.1372 50.9895 42.1372 51.4089C42.1372 51.8282 42.2211 52.1636 42.389 52.4152C42.5569 52.6668 42.7248 52.9184 42.9766 53.0861C43.2284 53.2539 43.4802 53.2539 43.816 53.2539C44.1517 53.3377 44.4036 53.2539 44.6554 53.0861Z" fill="white"/>
<path d="M48.0969 53.5055C47.7611 53.3377 47.5093 53.0023 47.2575 52.6668C47.0896 52.3314 46.9218 51.912 46.9218 51.4089C46.9218 50.9057 47.0057 50.4864 47.2575 50.1509C47.4254 49.8154 47.7611 49.48 48.0969 49.3123C48.4326 49.1445 48.8523 48.9768 49.272 48.9768C49.6917 48.9768 50.1114 49.0607 50.4472 49.3123C50.7829 49.48 51.1187 49.8154 51.2866 50.1509C51.4544 50.4864 51.6223 50.9057 51.6223 51.4089C51.6223 51.912 51.5384 52.3314 51.2866 52.6668C51.1187 53.0023 50.7829 53.3377 50.4472 53.5055C50.1114 53.6732 49.6917 53.8409 49.272 53.8409C48.8523 53.8409 48.4326 53.7571 48.0969 53.5055ZM50.1114 53.0861C50.3632 52.9184 50.615 52.7507 50.7829 52.4152C50.9508 52.1636 51.0347 51.8282 51.0347 51.4089C51.0347 50.9895 50.9508 50.6541 50.7829 50.4025C50.615 50.1509 50.4472 49.8993 50.1114 49.7316C49.8596 49.5638 49.5238 49.5638 49.272 49.5638C49.0202 49.5638 48.6845 49.6477 48.4326 49.7316C48.1808 49.8993 47.929 50.067 47.8451 50.4025C47.6772 50.6541 47.5933 50.9895 47.5933 51.4089C47.5933 51.8282 47.6772 52.1636 47.8451 52.4152C48.013 52.6668 48.1808 52.9184 48.4326 53.0861C48.6845 53.2539 48.9363 53.2539 49.272 53.2539C49.6078 53.3377 49.8596 53.2539 50.1114 53.0861Z" fill="white"/>
<path d="M53.5529 49.6477V52.4991C53.5529 52.7507 53.6368 53.0023 53.7208 53.0861C53.8047 53.17 54.0565 53.2539 54.3083 53.2539H54.8959V53.757H54.2244C53.8047 53.757 53.469 53.6732 53.3011 53.4216C53.1332 53.2539 52.9653 52.9184 52.9653 52.4152V49.5638H52.2938V49.0606H52.8814V47.8865H53.469V49.0606H54.728V49.5638H53.5529V49.6477Z" fill="white"/>
<path d="M57.0783 49.3122C57.414 49.1445 57.7498 48.9768 58.2534 48.9768C58.6731 48.9768 59.0928 49.0606 59.4286 49.3122C59.7643 49.48 60.0161 49.8154 60.184 50.1509C60.3519 50.4863 60.4358 50.9057 60.4358 51.4088C60.4358 51.912 60.3519 52.3314 60.184 52.6668C60.0161 53.0023 59.7643 53.3377 59.4286 53.5055C59.0928 53.6732 58.6731 53.8409 58.2534 53.8409C57.8337 53.8409 57.414 53.7571 57.0783 53.5055C56.7425 53.3377 56.4907 53.0023 56.4068 52.7507V53.7571H55.8192V47.4672H56.4068V50.1509C56.4907 49.8154 56.7425 49.5638 57.0783 49.3122ZM59.5965 50.4025C59.4286 50.1509 59.2607 49.8993 59.0089 49.7316C58.7571 49.5638 58.4213 49.48 58.0856 49.48C57.7498 49.48 57.498 49.5638 57.2462 49.7316C56.9944 49.8993 56.7425 50.067 56.6586 50.4025C56.4907 50.6541 56.4068 50.9895 56.4068 51.4088C56.4068 51.7443 56.4907 52.0798 56.6586 52.4152C56.8265 52.6668 56.9944 52.9184 57.2462 53.0861C57.498 53.2539 57.8337 53.3377 58.0856 53.3377C58.4213 53.3377 58.6731 53.2539 59.0089 53.0861C59.2607 52.9184 59.5125 52.7507 59.5965 52.4152C59.7643 52.1636 59.8483 51.8282 59.8483 51.4088C59.8483 51.0734 59.7643 50.7379 59.5965 50.4025Z" fill="white"/>
<path d="M61.5271 50.1509C61.695 49.8154 61.9468 49.48 62.2825 49.3123C62.6183 49.1445 63.038 48.9768 63.4577 48.9768C63.8774 48.9768 64.2971 49.0607 64.6328 49.3123C64.9686 49.48 65.2204 49.8154 65.3043 50.067V49.0607H65.8919V53.6732H65.3043V52.6668C65.1364 53.0023 64.8846 53.2539 64.6328 53.4216C64.2971 53.5893 63.9613 53.7571 63.4577 53.7571C63.038 53.7571 62.6183 53.6732 62.2825 53.4216C61.9468 53.2539 61.695 52.9184 61.5271 52.583C61.3592 52.2475 61.2753 51.8282 61.2753 51.325C61.2753 50.9895 61.3592 50.5702 61.5271 50.1509ZM65.1364 50.4864C64.9686 50.2348 64.8007 49.9832 64.5489 49.8154C64.2971 49.6477 63.9613 49.5638 63.7095 49.5638C63.3737 49.5638 63.1219 49.6477 62.7862 49.8154C62.4504 49.9832 62.2825 50.1509 62.1986 50.4864C62.0307 50.7379 61.9468 51.0734 61.9468 51.4927C61.9468 51.9121 62.0307 52.2475 62.1986 52.4991C62.3665 52.7507 62.5344 53.0023 62.7862 53.17C63.038 53.3377 63.3737 53.4216 63.7095 53.4216C64.0452 53.4216 64.2971 53.3377 64.5489 53.17C64.8007 53.0023 65.0525 52.8346 65.1364 52.4991C65.3043 52.2475 65.3883 51.9121 65.3883 51.4927C65.3043 51.0734 65.2204 50.7379 65.1364 50.4864Z" fill="white"/>
<path d="M67.9064 47.4672V53.7571H67.3188V47.4672H67.9064Z" fill="white"/>
<path d="M69.837 47.4672V53.7571H69.2494V47.4672H69.837Z" fill="white"/>
<path d="M74.2857 52.6668H76.2163V53.7571H72.8588V47.8027H74.2857V52.6668Z" fill="white"/>
<path d="M81.4205 51.7443H78.063C78.063 52.0798 78.1469 52.2475 78.3148 52.4152C78.4827 52.583 78.6505 52.6668 78.9024 52.6668C79.2381 52.6668 79.4899 52.4991 79.6578 52.2475H81.1687C81.0848 52.583 80.9169 52.8346 80.749 53.0862C80.5811 53.3378 80.2454 53.5055 79.9936 53.6732C79.6578 53.8409 79.3221 53.9248 78.9024 53.9248C78.3987 53.9248 77.979 53.8409 77.6433 53.5893C77.3075 53.4216 76.9718 53.0862 76.8039 52.7507C76.636 52.4152 76.4681 51.9121 76.4681 51.4927C76.4681 50.9896 76.5521 50.5702 76.8039 50.2348C76.9718 49.8993 77.3075 49.5639 77.6433 49.3961C77.979 49.2284 78.3987 49.0607 78.9024 49.0607C79.3221 49.0607 79.7417 49.1445 80.1614 49.3123C80.4972 49.48 80.8329 49.8154 81.0008 50.1509C81.1687 50.4864 81.3366 50.9057 81.3366 51.4089C81.4205 51.4089 81.4205 51.5766 81.4205 51.7443ZM79.9096 50.9057C79.9096 50.6541 79.8257 50.4864 79.6578 50.3186C79.4899 50.1509 79.2381 50.067 78.9863 50.067C78.7345 50.067 78.5666 50.1509 78.3987 50.3186C78.2309 50.4864 78.1469 50.6541 78.063 50.9057H79.9096Z" fill="white"/>
<path d="M82.176 50.067C82.3438 49.7316 82.5956 49.3961 82.9314 49.2284C83.2672 49.0607 83.6029 48.8929 84.0226 48.8929C84.3584 48.8929 84.6941 48.9768 84.9459 49.0607C85.1977 49.2284 85.3656 49.3961 85.5335 49.5638V48.8929H86.9605V53.6732H85.5335V53.0023C85.3656 53.2539 85.1977 53.4216 84.9459 53.5055C84.6941 53.6732 84.3584 53.6732 84.0226 53.6732C83.6029 53.6732 83.2672 53.5893 82.9314 53.3377C82.5956 53.17 82.3438 52.8346 82.176 52.4991C82.0081 52.1636 81.9241 51.6605 81.9241 51.2411C81.9241 50.9057 82.0081 50.4864 82.176 50.067ZM85.1138 50.4864C84.9459 50.2348 84.6941 50.1509 84.3584 50.1509C84.1065 50.1509 83.8547 50.2348 83.6029 50.4864C83.435 50.6541 83.2671 50.9895 83.2671 51.325C83.2671 51.6605 83.3511 51.9959 83.6029 52.1636C83.7708 52.4152 84.0226 52.4991 84.3584 52.4991C84.6102 52.4991 84.862 52.4152 85.1138 52.1636C85.2817 51.912 85.4496 51.6605 85.4496 51.325C85.4496 50.9895 85.3656 50.7379 85.1138 50.4864Z" fill="white"/>
<path d="M90.6537 49.1445C90.9055 49.3123 91.0734 49.48 91.2413 49.6477V48.9768H92.6682V53.7571C92.6682 54.1764 92.5843 54.5957 92.4164 54.9312C92.2486 55.2666 91.9967 55.6021 91.661 55.7698C91.3252 56.0214 90.8216 56.1053 90.318 56.1053C89.6465 56.1053 89.0589 55.9375 88.6392 55.6021C88.2195 55.2666 87.9677 54.8473 87.8837 54.2602H89.3107C89.3946 54.428 89.4786 54.5957 89.6465 54.6796C89.8143 54.7634 90.0661 54.8473 90.318 54.8473C90.6537 54.8473 90.8216 54.7634 91.0734 54.5957C91.2413 54.428 91.3252 54.1764 91.3252 53.7571V53.0861C91.1574 53.3377 90.9895 53.5055 90.7377 53.5893C90.4858 53.7571 90.234 53.7571 89.8983 53.7571C89.4786 53.7571 89.1428 53.6732 88.8071 53.4216C88.4713 53.2539 88.2195 52.9184 88.0516 52.583C87.8837 52.2475 87.7998 51.7443 87.7998 51.325C87.7998 50.8218 87.8837 50.4025 88.0516 50.067C88.2195 49.7316 88.4713 49.3961 88.8071 49.2284C89.1428 49.0607 89.4786 48.8929 89.8983 48.8929C90.1501 48.9768 90.4019 48.9768 90.6537 49.1445ZM90.9055 50.4864C90.7377 50.2348 90.4858 50.1509 90.1501 50.1509C89.8983 50.1509 89.6465 50.2348 89.3946 50.4864C89.2268 50.6541 89.0589 50.9895 89.0589 51.325C89.0589 51.6605 89.1428 51.9959 89.3946 52.1636C89.5625 52.4152 89.8143 52.4991 90.1501 52.4991C90.4019 52.4991 90.6537 52.4152 90.9055 52.1636C91.0734 51.912 91.2413 51.6605 91.2413 51.325C91.2413 50.9895 91.1574 50.7379 90.9055 50.4864Z" fill="white"/>
<path d="M98.46 48.9768V53.7571H97.0331V53.0862C96.8652 53.3377 96.6973 53.5055 96.4455 53.5893C96.1937 53.7571 95.9419 53.7571 95.6061 53.7571C95.2704 53.7571 94.9346 53.6732 94.6828 53.5055C94.431 53.3377 94.1792 53.0862 94.0113 52.8346C93.8434 52.4991 93.7595 52.1636 93.7595 51.7443V48.9768H95.1864V51.5766C95.1864 51.9121 95.2704 52.1636 95.4382 52.3314C95.6061 52.4991 95.8579 52.583 96.1097 52.583C96.3616 52.583 96.6134 52.4991 96.7813 52.3314C96.9491 52.1636 97.0331 51.9121 97.0331 51.5766V48.9768H98.46Z" fill="white"/>
<path d="M104 51.7443H100.726C100.726 52.0798 100.81 52.2475 100.978 52.4152C101.146 52.583 101.314 52.6668 101.566 52.6668C101.902 52.6668 102.153 52.4991 102.321 52.2475H103.832C103.748 52.583 103.58 52.8346 103.412 53.0862C103.245 53.3378 102.909 53.5055 102.657 53.6732C102.321 53.8409 101.986 53.9248 101.566 53.9248C101.062 53.9248 100.642 53.8409 100.307 53.5893C99.971 53.4216 99.6352 53.0862 99.4673 52.7507C99.2995 52.4152 99.1316 51.9121 99.1316 51.4927C99.1316 50.9896 99.2155 50.5702 99.4673 50.2348C99.6352 49.8993 99.971 49.5639 100.307 49.3961C100.642 49.2284 101.062 49.0607 101.566 49.0607C101.986 49.0607 102.405 49.1445 102.825 49.3123C103.161 49.48 103.496 49.8154 103.664 50.1509C103.832 50.4864 104 50.9057 104 51.4089C104 51.4089 104 51.5766 104 51.7443ZM102.489 50.9057C102.489 50.6541 102.405 50.4864 102.237 50.3186C102.069 50.1509 101.818 50.067 101.566 50.067C101.314 50.067 101.146 50.1509 100.978 50.3186C100.81 50.4864 100.726 50.6541 100.642 50.9057H102.489Z" fill="white"/>
</svg>
